<svg width="202" height="92" viewBox="0 0 202 92" fill="none" xmlns="http://www.w3.org/2000/svg">
<g filter="url(#filter0_b_1795_277)">
<path d="M43.9154 1C49.8547 1 54.6697 5.85272 54.6697 11.839C54.6697 16.5259 51.7176 20.5189 47.5853 22.0307L47.5859 78.1796C55.2787 77.8367 62.4323 76.418 68.788 74.0669L68.7878 31.0206C64.6555 29.5077 61.7034 25.5154 61.7034 20.8283C61.7034 14.8424 66.5184 9.98969 72.4577 9.98969C78.397 9.98969 83.212 14.8424 83.212 20.8283C83.212 25.5154 80.26 29.5077 76.128 31.0206V70.7449C83.194 66.8952 88.856 61.6843 92.61 55.3903C90.063 53.0766 88.462 49.7264 88.462 46C88.462 39.0204 94.075 33.3626 101 33.3626C101.569 33.3626 102.128 33.401 102.677 33.4748C112.227 16.7398 132.703 6.60366 157.134 6.34742L158.085 6.34246H197.33C199.357 6.34246 201 7.99836 201 10.0411C201 12.0108 199.472 13.6209 197.546 13.7335L197.33 13.7398H190.297V69.9693C194.429 71.4811 197.381 75.4735 197.381 80.1606C197.381 86.1471 192.566 91 186.627 91C180.688 91 175.873 86.1471 175.873 80.1606C175.873 75.4735 178.825 71.4811 182.958 69.9693L182.957 13.7398H161.754L161.755 69.9693C165.887 71.4811 168.839 75.4735 168.839 80.1606C168.839 86.1471 164.024 91 158.085 91C152.146 91 147.33 86.1471 147.33 80.1606C147.33 75.4735 150.282 71.4811 154.415 69.9693L154.414 13.8208C146.721 14.1631 139.568 15.5818 133.212 17.9332V60.9794C137.345 62.4912 140.297 66.4836 140.297 71.1717C140.297 77.1572 135.481 82.0101 129.542 82.0101C123.603 82.0101 118.788 77.1572 118.788 71.1717C118.788 66.4836 121.74 62.4912 125.872 60.9794V21.2551C118.806 25.1048 113.144 30.3157 109.39 36.6097C111.937 38.9224 113.538 42.2726 113.538 46C113.538 52.9785 107.924 58.6374 101 58.6374C100.431 58.6374 99.872 58.599 99.323 58.5252C89.773 75.2601 69.2969 85.3967 44.8657 85.6526L43.9154 85.6576H4.6697C2.643 85.6576 1 84.0012 1 81.9585C1 79.9897 2.5277 78.3788 4.4541 78.2665L4.6697 78.2604L11.7034 78.2594V22.0307C7.571 20.5189 4.6188 16.526 4.6188 11.839C4.6188 5.85272 9.4338 1 15.3731 1C21.3124 1 26.1274 5.85272 26.1274 11.839C26.1274 16.5255 23.1757 20.5179 19.044 22.0297L19.0428 78.2594H40.2453L40.2455 22.0307C36.1132 20.5189 33.1611 16.5259 33.1611 11.839C33.1611 5.85272 37.9761 1 43.9154 1Z" stroke="black"/>
</g>
<defs>
<filter id="filter0_b_1795_277" x="-39.5" y="-39.5" width="281" height="171" filterUnits="userSpaceOnUse" color-interpolation-filters="sRGB">
<feFlood flood-opacity="0" result="BackgroundImageFix"/>
<feGaussianBlur in="BackgroundImageFix" stdDeviation="20"/>
<feComposite in2="SourceAlpha" operator="in" result="effect1_backgroundBlur_1795_277"/>
<feBlend mode="normal" in="SourceGraphic" in2="effect1_backgroundBlur_1795_277" result="shape"/>
</filter>
</defs>
</svg>
