<svg width="127" height="101" viewBox="0 0 127 101" fill="none" xmlns="http://www.w3.org/2000/svg">
<path d="M21.2633 1L31.2557 13.0198L1 25.0396L21.2633 1Z" stroke="black"/>
<path d="M63.5273 61.567L94.3167 25.0396H110.021L63.4478 80.5597L63.5273 61.567Z" stroke="black"/>
<path d="M94.3167 25.0398H1L31.2557 13.02H100.246L110.021 25.0398H94.3167Z" stroke="black"/>
<path d="M94.3169 25.0398L100.246 13.02L110.021 25.0398H94.3169Z" stroke="black"/>
<path d="M100.246 13.0198H31.2556L21.2632 1H105.768L100.246 13.0198Z" stroke="black"/>
<path d="M110.021 25.0396L100.246 13.0198L105.768 1L125.841 25.0396H110.021Z" stroke="black"/>
<path d="M63.4478 80.5597L110.021 25.0396H125.841L79.2894 80.2665L63.5559 99L63.4478 80.5597Z" stroke="black"/>
<path d="M45.0486 58.8094L63.4477 80.5596L63.5559 98.9999L21.4771 49.0791L45.0486 58.8094Z" stroke="black"/>
<path d="M45.0486 58.8094L21.4771 49.0791H53.0011L45.0486 58.8094Z" stroke="black"/>
<path d="M53.0014 49.0791L45.0488 58.8094L63.448 80.5596L63.5275 61.5669L53.0014 49.0791Z" stroke="black"/>
</svg>
