<svg width="130" height="30" viewBox="0 0 130 30" fill="none" xmlns="http://www.w3.org/2000/svg">
<g clip-path="url(#clip0_1593_37)">
<path fill-rule="evenodd" clip-rule="evenodd" d="M116.405 21.9967C120.683 22.0144 124.464 19.8566 126.753 16.5808C127.68 15.2547 128.362 13.7419 128.733 12.1096C128.754 12.4092 128.765 12.7117 128.765 13.0167C128.765 19.976 123.167 25.6177 116.262 25.6177C108.76 25.6177 103.484 20.3975 103.484 13.9582C103.484 8.94446 106.682 4.66987 111.17 3.02287C112.261 2.64788 113.376 2.44352 114.537 2.44352C119.935 2.44352 124.597 6.85307 124.597 12.2925C124.597 13.227 124.468 14.1311 123.939 14.9877C124.138 14.4594 124.166 14.0673 124.166 13.6685C124.166 9.14895 120.387 5.62997 115.903 5.62997C111.418 5.62997 107.783 9.29379 107.783 13.8133C107.783 17.6408 110.39 20.8545 113.912 21.7491C114.63 21.8937 115.364 21.9933 116.405 21.9967Z" stroke="black" stroke-width="0.596104" stroke-linejoin="bevel"/>
<path fill-rule="evenodd" clip-rule="evenodd" d="M115.843 3.95788C111.565 3.94024 107.784 6.09802 105.495 9.37379C104.569 10.6999 103.886 12.2127 103.515 13.845C103.494 13.5454 103.483 13.2429 103.483 12.9379C103.483 5.97855 109.081 0.336914 115.986 0.336914C123.488 0.336914 128.764 5.55705 128.764 11.9964C128.764 17.0101 125.566 21.2847 121.078 22.9317C119.987 23.3067 118.872 23.5111 117.711 23.5111C112.314 23.5111 107.651 19.1015 107.651 13.6621C107.651 12.7276 107.78 11.8234 108.309 10.9669C108.11 11.4952 108.082 11.8873 108.082 12.2861C108.082 16.8056 111.861 20.3246 116.345 20.3246C120.83 20.3246 124.465 16.6608 124.465 12.1412C124.465 8.31379 121.858 5.10005 118.336 4.20554C117.618 4.06085 116.884 3.96131 115.843 3.95788Z" fill="black" stroke="black" stroke-width="0.596104" stroke-linejoin="bevel"/>
<path d="M0.0859375 23.483V2.46582H7.24953C9.18351 2.46582 10.7129 2.99372 11.8378 4.04951C12.9627 5.1053 13.5251 6.51138 13.5251 8.26774C13.5251 9.80703 13.0663 11.07 12.1486 12.0568C11.231 13.0435 9.95315 13.6552 8.31519 13.8921L16.426 23.483H12.9627L4.8814 13.9217H2.83889V23.483H0.0859375ZM2.83889 11.4647H6.92392C8.14745 11.4647 9.0947 11.1934 9.76567 10.6507C10.4366 10.108 10.7721 9.31367 10.7721 8.26774C10.7721 7.22182 10.4366 6.41764 9.76567 5.85521C9.0947 5.29278 8.14745 5.01156 6.92392 5.01156H2.83889V11.4647Z" fill="black"/>
<path d="M21.0735 4.21218C20.738 4.54766 20.3137 4.7154 19.8006 4.7154C19.2875 4.7154 18.8534 4.54273 18.4982 4.19738C18.1429 3.85202 17.9653 3.4228 17.9653 2.9097C17.9653 2.41634 18.1429 1.99205 18.4982 1.63683C18.8534 1.28161 19.2875 1.104 19.8006 1.104C20.3137 1.104 20.738 1.28161 21.0735 1.63683C21.409 1.99205 21.5767 2.41634 21.5767 2.9097C21.5767 3.4228 21.409 3.85696 21.0735 4.21218ZM18.4982 23.4828V8.68202H21.0439V23.4828H18.4982Z" fill="black"/>
<path d="M25.8687 23.4826V8.68176H28.4144V10.9611C29.4208 9.24419 30.9897 8.38574 33.1211 8.38574C34.7985 8.38574 36.1503 8.92844 37.1765 10.0138C38.2027 11.0992 38.7158 12.5497 38.7158 14.3653V23.4826H36.1996V14.7501C36.1996 13.5068 35.8839 12.525 35.2524 11.8047C34.6209 11.0844 33.7723 10.7243 32.7066 10.7243C31.4831 10.7243 30.4618 11.2078 29.6429 12.1748C28.8239 13.1417 28.4144 14.4639 28.4144 16.1414V23.4826H25.8687Z" fill="black"/>
<path d="M49.8162 29.9653C47.8625 29.9653 46.2394 29.4868 44.9468 28.5297C43.6542 27.5725 42.8895 26.3441 42.6526 24.8443H45.1392C45.7904 26.7585 47.3692 27.7156 49.8754 27.7156C51.2766 27.7156 52.4064 27.2667 53.2648 26.3687C54.1233 25.4708 54.5525 24.2128 54.5525 22.5945V20.848C54.0197 21.6374 53.2994 22.2689 52.3916 22.7425C51.4838 23.2162 50.4872 23.453 49.4018 23.453C47.3297 23.453 45.6029 22.7277 44.2215 21.2773C42.8401 19.8268 42.1494 18.0359 42.1494 15.9046C42.1494 13.793 42.8451 12.0119 44.2363 10.5615C45.6276 9.11098 47.3494 8.38574 49.4018 8.38574C50.4872 8.38574 51.4838 8.62256 52.3916 9.09618C53.2994 9.56981 54.0197 10.1914 54.5525 10.9611V8.68176H57.0982V22.5649C57.0982 24.9331 56.4125 26.7585 55.0409 28.0412C53.6694 29.324 51.9278 29.9653 49.8162 29.9653ZM46.1456 19.6344C47.0732 20.6014 48.277 21.0848 49.757 21.0848C51.2371 21.0848 52.4409 20.5964 53.3684 19.6196C54.296 18.6427 54.7597 17.4044 54.7597 15.9046C54.7597 14.4047 54.291 13.1664 53.3536 12.1896C52.4162 11.2127 51.2174 10.7243 49.757 10.7243C48.2967 10.7243 47.0978 11.2127 46.1604 12.1896C45.2231 13.1664 44.7544 14.4047 44.7544 15.9046C44.7544 17.4044 45.2181 18.6476 46.1456 19.6344Z" fill="black"/>
<path d="M62.2788 23.483V2.46582H68.3175C71.5343 2.46582 74.2033 3.46241 76.3248 5.45559C78.4462 7.44876 79.507 9.95504 79.507 12.9744C79.507 15.9938 78.4462 18.5 76.3248 20.4932C74.2033 22.4864 71.5343 23.483 68.3175 23.483H62.2788ZM65.0318 20.9076H68.3175C70.8238 20.9076 72.8515 20.1627 74.4007 18.6727C75.9498 17.1828 76.7244 15.2833 76.7244 12.9744C76.7244 10.6655 75.9498 8.76604 74.4007 7.27609C72.8515 5.78614 70.8238 5.04116 68.3175 5.04116H65.0318V20.9076Z" fill="black"/>
<path d="M81.0166 23.483L90.3115 2.46582H92.5908L101.915 23.483H99.044L96.3207 17.3554H86.5225L83.8584 23.483H81.0166ZM91.4068 6.19563L87.6178 14.8689H95.2254L91.4068 6.19563Z" fill="black"/>
</g>
<defs>
<clipPath id="clip0_1593_37">
<rect width="129.101" height="30" fill="white"/>
</clipPath>
</defs>
</svg>
