<svg width="123" height="124" viewBox="0 0 123 124" fill="none" xmlns="http://www.w3.org/2000/svg">
<g filter="url(#filter0_b_1795_272)">
<path d="M61.5 1C78.2066 1 93.3316 7.82766 104.28 18.8665C115.228 29.9053 122 45.1553 122 62C122 78.8447 115.228 94.0947 104.28 105.134C93.3316 116.172 78.2066 123 61.5 123C44.7934 123 29.6684 116.172 18.72 105.134C7.7717 94.0947 1 78.8447 1 62C1 45.1553 7.7717 29.9053 18.72 18.8665C29.6684 7.82766 44.7934 1 61.5 1ZM43.7088 104.325L43.5632 104.394C39.2256 106.433 34.7072 108.147 30.039 109.504C39.0368 115.577 49.8583 119.117 61.5 119.117C61.926 119.117 62.3509 119.113 62.7746 119.103C59.3472 115.46 56.205 111.543 53.384 107.386C52.5002 107.704 51.5478 107.878 50.5553 107.878C48.2326 107.878 46.1298 106.928 44.6076 105.394C44.2799 105.063 43.9791 104.706 43.7088 104.325ZM79.454 74.7508L78.7518 75.7014C72.959 83.4187 66.017 90.2105 58.1827 95.8179C58.6857 96.9051 58.9665 98.118 58.9665 99.397C58.9665 101.679 58.0725 103.751 56.6184 105.275C59.9224 110.133 63.6847 114.649 67.842 118.761C87.5796 116.546 104.254 104.105 112.539 86.8127C102.608 80.7382 91.4168 76.5547 79.454 74.7508ZM28.7185 81.9267L28.3802 82.0837C22.8918 84.6459 17.7032 87.7504 12.8822 91.3291C16.3505 97.1658 20.8253 102.325 26.0635 106.565C31.6885 105.135 37.1015 103.17 42.2469 100.727C42.1792 100.294 42.1441 99.8494 42.1441 99.397C42.1441 97.0551 43.0855 94.9349 44.6076 93.4002C44.8167 93.1895 45.0366 92.9898 45.2666 92.802C44.6921 91.5138 44.1455 90.2102 43.6276 88.8921C42.7233 89.0803 41.7864 89.1792 40.8266 89.1792C37.0208 89.1792 33.5752 87.6239 31.0811 85.1092C30.1511 84.1714 29.3533 83.1003 28.7185 81.9267ZM50.5553 94.799C49.296 94.799 48.1559 95.3137 47.3307 96.1457C46.5054 96.9778 45.995 98.1273 45.995 99.397C45.995 100.667 46.5054 101.816 47.3307 102.648C48.1559 103.48 49.296 103.995 50.5553 103.995C51.8146 103.995 52.9546 103.48 53.7799 102.648C54.6052 101.816 55.1156 100.667 55.1156 99.397C55.1156 98.1273 54.6052 96.9778 53.7799 96.1457C52.9546 95.3137 51.8146 94.799 50.5553 94.799ZM66.0603 73.7504C62.173 73.7504 58.3433 73.9995 54.5862 74.4827C54.6013 74.7477 54.6089 75.0145 54.6089 75.2831C54.6089 79.1204 53.0663 82.5944 50.5722 85.1092C49.5995 86.0899 48.4821 86.9247 47.255 87.5783C47.7247 88.77 48.2191 89.9491 48.7374 91.1152C49.3229 90.9848 49.9311 90.9163 50.5553 90.9163C52.5371 90.9163 54.3588 91.6073 55.7964 92.7635C63.0872 87.5692 69.5762 81.3066 75.0389 74.1988C72.0862 73.9018 69.0908 73.7504 66.0603 73.7504ZM31.9445 40.7876L31.8631 40.838C21.8842 47.0378 12.8038 54.5665 4.86463 63.1794C5.04152 72.0692 7.23403 80.4595 10.9994 87.9064C16.0917 84.1683 21.5711 80.9353 27.366 78.2805C27.1553 77.3152 27.0444 76.3122 27.0444 75.2831C27.0444 71.4458 28.587 67.9717 31.0811 65.457C32.7961 63.7279 34.9608 62.4524 37.3833 61.8242C37.1805 59.2875 37.0771 56.7221 37.0771 54.1323C37.0771 51.0587 37.2227 48.0194 37.5075 45.0211C35.8713 44.4484 34.4053 43.5087 33.2063 42.2998C32.7442 41.8338 32.3217 41.3279 31.9445 40.7876ZM40.8266 65.2697C38.0842 65.2697 35.6013 66.3905 33.8041 68.2025C32.0069 70.0146 30.8953 72.518 30.8953 75.2831C30.8953 78.0482 32.0069 80.5516 33.8041 82.3636C35.6013 84.1757 38.0842 85.2965 40.8266 85.2965C43.5691 85.2965 46.0519 84.1757 47.8491 82.3636C49.6464 80.5516 50.758 78.0482 50.758 75.2831C50.758 72.518 49.6464 70.0146 47.8491 68.2025C46.0519 66.3905 43.5691 65.2697 40.8266 65.2697ZM115.689 45.2977L115.625 45.0888L115.982 45.0091C111.215 46.0865 106.336 46.8635 101.364 47.3194C100.981 49.4752 99.9457 51.4032 98.4721 52.889C96.5832 54.7936 93.9737 55.9715 91.0913 55.9715C90.774 55.9715 90.46 55.9573 90.1499 55.9293C87.8835 61.2642 85.143 66.3461 81.9823 71.1212L81.9182 71.2176L82.3981 71.2999C93.8132 73.3251 104.516 77.435 114.105 83.2259C116.715 76.6654 118.149 69.5016 118.149 62V61.6889C118.118 55.9889 117.26 50.4864 115.689 45.2977ZM40.8266 68.8459C42.5897 68.8459 44.1858 69.5664 45.3411 70.7313C46.4965 71.8962 47.2111 73.5055 47.2111 75.2831C47.2111 77.0607 46.4965 78.67 45.3411 79.8349C44.1858 80.9998 42.5897 81.7203 40.8266 81.7203C39.0636 81.7203 37.4675 80.9998 36.3122 79.8349C35.1568 78.67 34.4422 77.0607 34.4422 75.2831C34.4422 73.5055 35.1568 71.8962 36.3122 70.7313C37.4675 69.5664 39.0636 68.8459 40.8266 68.8459ZM40.8266 71.7069C39.8472 71.7069 38.9605 72.1072 38.3186 72.7543C37.6767 73.4015 37.2797 74.2955 37.2797 75.2831C37.2797 76.2706 37.6767 77.1647 38.3186 77.8119C38.9605 78.459 39.8472 78.8593 40.8266 78.8593C41.8061 78.8593 42.6928 78.459 43.3347 77.8119C43.9765 77.1647 44.3735 76.2706 44.3735 75.2831C44.3735 74.2955 43.9765 73.4015 43.3347 72.7543C42.6928 72.1072 41.8061 71.7069 40.8266 71.7069ZM49.2577 42.2998C47.2223 44.352 44.4175 45.6283 41.317 45.6513C41.0595 48.4433 40.928 51.2724 40.928 54.1323C40.928 56.5761 41.024 58.9973 41.2125 61.3923C44.8651 61.4935 48.1626 63.0276 50.5722 65.457C52.0143 66.9111 53.1383 68.6859 53.8299 70.6662C57.8326 70.1393 61.915 69.8677 66.0603 69.8677C69.9938 69.8677 73.8706 70.1122 77.6777 70.5903C81.0827 65.6805 84.0166 60.4142 86.4138 54.8582C85.4091 54.3496 84.4973 53.6823 83.7105 52.889C82.2454 51.4118 81.2138 49.4975 80.8246 47.3567C70.4214 46.4406 60.4177 44.1184 51.0017 40.5796L50.729 40.4769C50.3009 41.1348 49.8074 41.7456 49.2577 42.2998ZM20.0983 23.015L19.9747 23.1485C11.5595 32.2878 6.07599 44.2096 5.03249 57.3932C12.5954 49.7045 21.0736 42.9314 30.2891 37.2559C30.0237 36.2856 29.8819 35.2634 29.8819 34.2077C29.8819 32.878 30.1068 31.6013 30.5204 30.4141C26.9422 28.1638 23.4965 25.7189 20.1979 23.0946L20.0983 23.015ZM91.0913 38.8057C89.2723 38.8057 87.6255 39.5491 86.4335 40.751C85.2415 41.9528 84.5042 43.6132 84.5042 45.4472C84.5042 47.2813 85.2415 48.9416 86.4335 50.1435C87.6255 51.3454 89.2723 52.0888 91.0913 52.0888C92.9103 52.0888 94.557 51.3454 95.7491 50.1435C96.9411 48.9416 97.6784 47.2813 97.6784 45.4472C97.6784 43.6132 96.9411 41.9528 95.7491 40.751C94.557 39.5491 92.9103 38.8057 91.0913 38.8057ZM93.7825 21.6714L93.212 21.6942C78.7284 22.405 64.8705 25.5184 52.0221 30.6476C52.3856 31.7683 52.5821 32.9648 52.5821 34.2077C52.5821 35.1383 52.4719 36.043 52.264 36.9092C61.2884 40.3094 70.8728 42.5525 80.8395 43.4595C81.2391 41.3503 82.2633 39.4646 83.7105 38.0054C85.5994 36.1009 88.2089 34.923 91.0913 34.923C91.5308 34.923 91.964 34.9503 92.3892 35.0035C93.1692 30.6596 93.6413 26.2076 93.7825 21.6714ZM99.6039 21.5377C98.947 21.5377 98.2913 21.5426 97.6387 21.5538C97.4959 26.5437 96.9689 31.437 96.0867 36.2043C96.9662 36.6884 97.769 37.2966 98.4721 38.0054C99.9108 39.456 100.931 41.3281 101.336 43.4223C105.755 43.0042 110.097 42.3233 114.348 41.3953C111.484 33.9235 107.102 27.2116 101.587 21.6421L101.458 21.5506C100.841 21.5421 100.223 21.5377 99.6039 21.5377ZM41.232 26.6466C39.1612 26.6466 37.2864 27.4929 35.9293 28.8612C34.5722 30.2295 33.7328 32.1198 33.7328 34.2077C33.7328 36.2957 34.5722 38.1859 35.9293 39.5542C37.2864 40.9225 39.1612 41.7689 41.232 41.7689C43.3028 41.7689 45.1776 40.9225 46.5347 39.5542C47.8918 38.1859 48.7312 36.2957 48.7312 34.2077C48.7312 32.1198 47.8918 30.2295 46.5347 28.8612C45.1776 27.4929 43.3028 26.6466 41.232 26.6466ZM61.5 4.88275C59.3484 4.88275 57.2248 5.00367 55.1355 5.23917C51.4455 11.0265 48.3914 17.2648 46.0727 23.8539C47.2623 24.4202 48.3385 25.1888 49.2577 26.1157C49.595 26.4557 49.9111 26.817 50.2039 27.1975C63.7326 21.7449 78.3564 18.4652 93.6504 17.7867L93.8218 17.7794L93.8213 17.7068C93.811 16.8146 93.788 15.9256 93.7523 15.0398C84.6005 8.63519 73.4849 4.88275 61.5 4.88275ZM50.122 6.03511L49.8813 6.08514C39.6123 8.24326 30.3622 13.2038 22.8899 20.0856L22.7719 20.1947L22.8643 20.2681C25.9174 22.6815 29.1001 24.9362 32.3999 27.0196C32.6528 26.704 32.922 26.4023 33.2063 26.1157C35.2602 24.0447 38.0978 22.7638 41.232 22.7638C41.6095 22.7638 41.9826 22.7824 42.3507 22.8187C44.3744 17.0123 46.9455 11.4654 50.0012 6.24106L50.122 6.03511Z" stroke="black"/>
</g>
<defs>
<filter id="filter0_b_1795_272" x="-39.5" y="-39.5" width="202" height="203" filterUnits="userSpaceOnUse" color-interpolation-filters="sRGB">
<feFlood flood-opacity="0" result="BackgroundImageFix"/>
<feGaussianBlur in="BackgroundImageFix" stdDeviation="20"/>
<feComposite in2="SourceAlpha" operator="in" result="effect1_backgroundBlur_1795_272"/>
<feBlend mode="normal" in="SourceGraphic" in2="effect1_backgroundBlur_1795_272" result="shape"/>
</filter>
</defs>
</svg>
