<svg width="339" height="62" viewBox="0 0 339 62" fill="none" xmlns="http://www.w3.org/2000/svg">
<g filter="url(#filter0_b_1600_205)">
<path d="M27.364 43.285H18.082L15.04 60.367H1L10.906 4.20702H34.696C40.572 4.20702 44.758 5.55901 47.254 8.26301C49.074 10.343 49.984 12.995 49.984 16.219C49.984 17.311 49.88 18.455 49.672 19.651L48.112 28.465C47.332 32.781 45.044 36.343 41.248 39.151C37.452 41.907 32.824 43.285 27.364 43.285ZM29.782 16.375H22.762L20.188 31.117H27.13C31.394 31.117 33.864 29.219 34.54 25.423L35.086 22.225C35.19 21.757 35.242 21.133 35.242 20.353C35.242 19.573 34.852 18.715 34.072 17.779C33.292 16.843 31.862 16.375 29.782 16.375ZM87.1754 48.355C87.1754 49.707 87.8514 50.383 89.2034 50.383C90.6074 50.383 91.7774 50.123 92.7134 49.603L92.3234 58.417C89.8274 60.445 87.0194 61.459 83.8994 61.459C78.1794 61.459 75.0074 59.379 74.3834 55.219C71.7834 59.379 67.9614 61.459 62.9174 61.459C54.3894 61.459 50.1254 57.793 50.1254 50.461C50.1254 49.213 50.2554 47.835 50.5154 46.327L52.1534 37.201C52.9854 32.521 54.8834 28.803 57.8474 26.047C60.8634 23.239 64.7634 21.835 69.5474 21.835C74.3834 21.835 77.6594 22.953 79.3754 25.189L79.7654 22.849H91.6214L87.2534 47.419C87.2014 47.731 87.1754 48.043 87.1754 48.355ZM64.0874 44.611C63.9834 45.079 63.9314 45.729 63.9314 46.561C63.9314 47.393 64.3214 48.225 65.1014 49.057C65.8814 49.837 67.1814 50.227 69.0014 50.227C70.8734 50.227 72.4854 49.499 73.8374 48.043L76.1774 34.939C75.6054 33.639 74.2534 32.989 72.1214 32.989C68.1174 32.989 65.7774 34.913 65.1014 38.761L64.0874 44.611ZM135.345 30.805C135.345 32.573 135.033 34.289 134.409 35.953C133.837 37.617 133.265 38.839 132.693 39.619L131.835 40.711H120.057C121.357 39.515 122.007 38.033 122.007 36.265C122.007 35.329 121.695 34.575 121.071 34.003C120.499 33.379 119.693 33.067 118.653 33.067C116.885 33.067 115.351 33.951 114.051 35.719L109.683 60.367H96.4232L103.053 22.849H115.377L114.441 28.075C117.405 23.863 120.993 21.757 125.205 21.757C128.585 21.757 131.107 22.563 132.771 24.175C134.487 25.787 135.345 27.997 135.345 30.805ZM174.164 48.355C174.164 49.707 174.84 50.383 176.192 50.383C177.596 50.383 178.766 50.123 179.702 49.603L179.312 58.417C176.816 60.445 174.008 61.459 170.888 61.459C165.168 61.459 161.996 59.379 161.372 55.219C158.772 59.379 154.95 61.459 149.906 61.459C141.378 61.459 137.114 57.793 137.114 50.461C137.114 49.213 137.244 47.835 137.504 46.327L139.142 37.201C139.974 32.521 141.872 28.803 144.836 26.047C147.852 23.239 151.752 21.835 156.536 21.835C161.372 21.835 164.648 22.953 166.364 25.189L166.754 22.849H178.61L174.242 47.419C174.19 47.731 174.164 48.043 174.164 48.355ZM151.076 44.611C150.972 45.079 150.92 45.729 150.92 46.561C150.92 47.393 151.31 48.225 152.09 49.057C152.87 49.837 154.17 50.227 155.99 50.227C157.862 50.227 159.474 49.499 160.826 48.043L163.166 34.939C162.594 33.639 161.242 32.989 159.11 32.989C155.106 32.989 152.766 34.913 152.09 38.761L151.076 44.611ZM219.838 60.367H184.27L194.176 4.20702H208.216L200.494 48.199H222.022L219.838 60.367ZM242.78 50.383C243.976 50.383 245.042 50.123 245.978 49.603L245.588 58.417C243.144 60.445 240.362 61.459 237.242 61.459C232.51 61.459 229.442 60.367 228.038 58.183C227.102 56.727 226.634 55.193 226.634 53.581C226.634 51.917 226.738 50.461 226.946 49.213L231.626 22.849H244.886L240.518 47.419C240.466 47.731 240.44 48.017 240.44 48.277C240.44 49.681 241.22 50.383 242.78 50.383ZM233.186 10.135C233.186 6.80702 233.914 4.38902 235.37 2.88101C236.878 1.32101 239.192 0.541016 242.312 0.541016C246.68 0.541016 248.864 2.46502 248.864 6.31302C248.864 9.58901 248.11 11.981 246.602 13.489C245.146 14.997 242.832 15.751 239.66 15.751C235.344 15.751 233.186 13.879 233.186 10.135ZM275.889 36.421C275.889 34.185 274.797 33.067 272.613 33.067C270.481 33.067 268.713 33.873 267.309 35.485L262.941 60.367H249.681L256.311 22.849H268.635L267.777 27.451C270.845 23.655 274.719 21.757 279.399 21.757C284.079 21.757 287.121 22.901 288.525 25.189C289.409 26.645 289.851 28.309 289.851 30.181C289.851 32.053 289.721 33.795 289.461 35.407L287.355 47.419C287.303 47.731 287.277 48.017 287.277 48.277C287.277 49.681 288.057 50.383 289.617 50.383C290.813 50.383 291.879 50.123 292.815 49.603L292.425 58.417C289.981 60.445 287.199 61.459 284.079 61.459C277.007 61.459 273.471 58.495 273.471 52.567C273.471 51.527 273.575 50.409 273.783 49.213L275.655 38.839C275.811 37.903 275.889 37.097 275.889 36.421ZM334.752 50.383C335.948 50.383 337.014 50.123 337.95 49.603L337.56 58.417C335.116 60.445 332.126 61.459 328.59 61.459C325.054 61.459 322.428 60.523 320.712 58.651C319.048 56.779 317.748 53.633 316.812 49.213L316.578 48.121C315.486 48.277 313.848 48.407 311.664 48.511L309.558 60.367H296.298L306.75 1.16501H320.01L315.486 26.827C318.554 23.447 322.714 21.757 327.966 21.757C331.502 21.757 334.102 22.641 335.766 24.409C337.482 26.125 338.34 28.439 338.34 31.351C338.34 36.967 335.402 41.361 329.526 44.533L330.384 47.419C330.956 49.395 332.412 50.383 334.752 50.383ZM321.258 32.365C318.45 32.365 315.954 33.691 313.77 36.343L312.912 41.491C320.608 41.179 324.456 39.125 324.456 35.329C324.456 34.445 324.17 33.743 323.598 33.223C323.078 32.651 322.298 32.365 321.258 32.365Z" stroke="black"/>
</g>
<defs>
<filter id="filter0_b_1600_205" x="-39.5957" y="-39.959" width="418.436" height="141.918" filterUnits="userSpaceOnUse" color-interpolation-filters="sRGB">
<feFlood flood-opacity="0" result="BackgroundImageFix"/>
<feGaussianBlur in="BackgroundImageFix" stdDeviation="20"/>
<feComposite in2="SourceAlpha" operator="in" result="effect1_backgroundBlur_1600_205"/>
<feBlend mode="normal" in="SourceGraphic" in2="effect1_backgroundBlur_1600_205" result="shape"/>
</filter>
</defs>
</svg>
