<svg width="501" height="120" viewBox="0 0 501 120" fill="none" xmlns="http://www.w3.org/2000/svg">
<mask id="path-1-inside-1_2862_55" fill="white">
<path d="M213.708 19C227.4 19 237.552 28.4847 237.552 40.7884C237.552 41.0919 237.546 41.3942 237.533 41.6953C237.546 42.0118 237.552 42.3294 237.552 42.6478C237.552 55.6277 227.103 66.1516 214.211 66.1516C200.519 66.1516 190.367 56.667 190.367 44.3632C190.367 44.0602 190.373 43.7584 190.385 43.4579C190.373 43.1408 190.367 42.8226 190.367 42.5038C190.367 29.524 200.816 19 213.708 19ZM213.445 26.6839C206.047 26.6536 199.23 30.3051 195.024 36.3207C193.351 38.7124 192.151 41.4097 191.498 44.2771L191.453 44.2737C191.453 44.3035 191.453 44.3334 191.453 44.3632C191.453 56.0501 201.103 65.0653 214.211 65.0653C223.26 65.0653 231.522 59.3131 235 51.5C232.472 55.761 228.029 59.4454 223.169 61.2275C221.074 61.9476 218.984 62.3128 216.853 62.3128C206.615 62.3128 197.966 53.942 197.966 43.8234C197.966 41.8425 198.286 40.2846 199.117 38.8442C201.252 32.8963 206.91 28.6449 213.556 28.6449C220.633 28.6449 226.19 33.647 228.08 40C227.484 34.0745 223.768 28.7035 218.047 27.1677L217.869 27.1214L217.716 27.0911C216.367 26.8281 215.162 26.6999 213.637 26.6853L213.445 26.6839ZM213.556 29.7311C207.429 29.7311 202.204 33.6229 200.185 39.0873L200.218 39.1033C199.927 39.8776 199.839 40.466 199.839 41.3162C199.839 49.1481 206.379 55.4203 214.363 55.4203C220.49 55.4203 225.715 51.5287 227.734 46.0643L227.701 46.0483C227.992 45.274 228.08 44.6856 228.08 43.8354C228.08 36.0034 221.54 29.7311 213.556 29.7311ZM2.36914 61.7184V23.4223H15.4317C18.9582 23.4223 21.747 24.3841 23.7982 26.308C25.8493 28.2318 26.8749 30.7939 26.8749 33.9942C26.8749 36.799 26.0383 39.1003 24.3649 40.8983C22.6917 42.6962 20.3616 43.811 17.3749 44.2425L32.1647 61.7184H25.8493L11.1135 44.2964H7.38906V61.7184H2.36914ZM7.38906 39.8195H14.8379C17.069 39.8195 18.7963 39.3251 20.0198 38.3362C21.2432 37.3474 21.855 35.9 21.855 33.9942C21.855 32.0884 21.2432 30.623 20.0198 29.5982C18.7963 28.5734 17.069 28.061 14.8379 28.061H7.38906V39.8195ZM40.6392 26.6046C40.0273 27.2159 39.2538 27.5216 38.3181 27.5216C37.3825 27.5216 36.5909 27.2069 35.9431 26.5777C35.2954 25.9484 34.9715 25.1663 34.9715 24.2313C34.9715 23.3324 35.2954 22.5592 35.9431 21.912C36.5909 21.2647 37.3825 20.9411 38.3181 20.9411C39.2538 20.9411 40.0273 21.2647 40.6392 21.912C41.2508 22.5592 41.5568 23.3324 41.5568 24.2313C41.5568 25.1663 41.2508 25.9574 40.6392 26.6046ZM35.9431 61.7184V34.7493H40.5853V61.7184H35.9431ZM49.3835 61.7184V34.7493H54.0256V38.9026C55.8608 35.7742 58.7218 34.2099 62.6079 34.2099C65.6666 34.2099 68.1315 35.1988 70.0028 37.1766C71.874 39.1543 72.8098 41.7973 72.8098 45.1055V61.7184H68.2216V45.8067C68.2216 43.5413 67.6458 41.7523 66.4944 40.4398C65.3427 39.1273 63.7954 38.4711 61.8523 38.4711C59.6211 38.4711 57.759 39.3521 56.2656 41.1141C54.7721 42.876 54.0256 45.2853 54.0256 48.3418V61.7184H49.3835ZM93.0513 73.531C89.4887 73.531 86.5288 72.6589 84.1718 70.9151C81.8148 69.1709 80.4206 66.9326 79.9888 64.1998H84.523C85.7104 67.6877 88.589 69.4319 93.1593 69.4319C95.7143 69.4319 97.7745 68.6137 99.3397 66.9774C100.905 65.3415 101.688 63.0489 101.688 60.1003V56.9181C100.716 58.3565 99.4025 59.507 97.7475 60.37C96.0921 61.233 94.2749 61.6644 92.2957 61.6644C88.5171 61.6644 85.3684 60.343 82.8494 57.7002C80.3305 55.0571 79.0712 51.7939 79.0712 47.9103C79.0712 44.0627 80.3396 40.8174 82.8764 38.1744C85.4136 35.5314 88.5532 34.2099 92.2957 34.2099C94.2749 34.2099 96.0921 34.6415 97.7475 35.5045C99.4025 36.3675 100.716 37.5002 101.688 38.9026V34.7493H106.33V60.0464C106.33 64.3616 105.079 67.6877 102.578 70.0252C100.078 72.3622 96.9018 73.531 93.0513 73.531ZM86.3581 54.7065C88.0492 56.4684 90.2443 57.3496 92.9434 57.3496C95.6421 57.3496 97.8372 56.4597 99.5286 54.6795C101.22 52.8996 102.065 50.6432 102.065 47.9103C102.065 45.1774 101.211 42.921 99.5017 41.141C97.7923 39.3611 95.6064 38.4711 92.9434 38.4711C90.2804 38.4711 88.0944 39.3611 86.3851 41.141C84.6758 42.921 83.821 45.1774 83.821 47.9103C83.821 50.6432 84.6667 52.9086 86.3581 54.7065ZM115.776 61.7184V23.4223H126.787C132.653 23.4223 137.52 25.2382 141.388 28.87C145.256 32.5019 147.191 37.0687 147.191 42.5704C147.191 48.0721 145.256 52.6389 141.388 56.2709C137.52 59.9024 132.653 61.7184 126.787 61.7184H115.776ZM120.796 57.026H126.787C131.357 57.026 135.055 55.6685 137.88 52.9535C140.704 50.2386 142.117 46.7776 142.117 42.5704C142.117 38.3632 140.704 34.9021 137.88 32.1872C135.055 29.4724 131.357 28.1149 126.787 28.1149H120.796V57.026ZM149.943 61.7184L166.892 23.4223H171.049L188.051 61.7184H182.816L177.85 50.5533H159.983L155.125 61.7184H149.943ZM168.889 30.2185L161.98 46.0224H175.853L168.889 30.2185Z"/>
</mask>
<path d="M213.708 19C227.4 19 237.552 28.4847 237.552 40.7884C237.552 41.0919 237.546 41.3942 237.533 41.6953C237.546 42.0118 237.552 42.3294 237.552 42.6478C237.552 55.6277 227.103 66.1516 214.211 66.1516C200.519 66.1516 190.367 56.667 190.367 44.3632C190.367 44.0602 190.373 43.7584 190.385 43.4579C190.373 43.1408 190.367 42.8226 190.367 42.5038C190.367 29.524 200.816 19 213.708 19ZM213.445 26.6839C206.047 26.6536 199.23 30.3051 195.024 36.3207C193.351 38.7124 192.151 41.4097 191.498 44.2771L191.453 44.2737C191.453 44.3035 191.453 44.3334 191.453 44.3632C191.453 56.0501 201.103 65.0653 214.211 65.0653C223.26 65.0653 231.522 59.3131 235 51.5C232.472 55.761 228.029 59.4454 223.169 61.2275C221.074 61.9476 218.984 62.3128 216.853 62.3128C206.615 62.3128 197.966 53.942 197.966 43.8234C197.966 41.8425 198.286 40.2846 199.117 38.8442C201.252 32.8963 206.91 28.6449 213.556 28.6449C220.633 28.6449 226.19 33.647 228.08 40C227.484 34.0745 223.768 28.7035 218.047 27.1677L217.869 27.1214L217.716 27.0911C216.367 26.8281 215.162 26.6999 213.637 26.6853L213.445 26.6839ZM213.556 29.7311C207.429 29.7311 202.204 33.6229 200.185 39.0873L200.218 39.1033C199.927 39.8776 199.839 40.466 199.839 41.3162C199.839 49.1481 206.379 55.4203 214.363 55.4203C220.49 55.4203 225.715 51.5287 227.734 46.0643L227.701 46.0483C227.992 45.274 228.08 44.6856 228.08 43.8354C228.08 36.0034 221.54 29.7311 213.556 29.7311ZM2.36914 61.7184V23.4223H15.4317C18.9582 23.4223 21.747 24.3841 23.7982 26.308C25.8493 28.2318 26.8749 30.7939 26.8749 33.9942C26.8749 36.799 26.0383 39.1003 24.3649 40.8983C22.6917 42.6962 20.3616 43.811 17.3749 44.2425L32.1647 61.7184H25.8493L11.1135 44.2964H7.38906V61.7184H2.36914ZM7.38906 39.8195H14.8379C17.069 39.8195 18.7963 39.3251 20.0198 38.3362C21.2432 37.3474 21.855 35.9 21.855 33.9942C21.855 32.0884 21.2432 30.623 20.0198 29.5982C18.7963 28.5734 17.069 28.061 14.8379 28.061H7.38906V39.8195ZM40.6392 26.6046C40.0273 27.2159 39.2538 27.5216 38.3181 27.5216C37.3825 27.5216 36.5909 27.2069 35.9431 26.5777C35.2954 25.9484 34.9715 25.1663 34.9715 24.2313C34.9715 23.3324 35.2954 22.5592 35.9431 21.912C36.5909 21.2647 37.3825 20.9411 38.3181 20.9411C39.2538 20.9411 40.0273 21.2647 40.6392 21.912C41.2508 22.5592 41.5568 23.3324 41.5568 24.2313C41.5568 25.1663 41.2508 25.9574 40.6392 26.6046ZM35.9431 61.7184V34.7493H40.5853V61.7184H35.9431ZM49.3835 61.7184V34.7493H54.0256V38.9026C55.8608 35.7742 58.7218 34.2099 62.6079 34.2099C65.6666 34.2099 68.1315 35.1988 70.0028 37.1766C71.874 39.1543 72.8098 41.7973 72.8098 45.1055V61.7184H68.2216V45.8067C68.2216 43.5413 67.6458 41.7523 66.4944 40.4398C65.3427 39.1273 63.7954 38.4711 61.8523 38.4711C59.6211 38.4711 57.759 39.3521 56.2656 41.1141C54.7721 42.876 54.0256 45.2853 54.0256 48.3418V61.7184H49.3835ZM93.0513 73.531C89.4887 73.531 86.5288 72.6589 84.1718 70.9151C81.8148 69.1709 80.4206 66.9326 79.9888 64.1998H84.523C85.7104 67.6877 88.589 69.4319 93.1593 69.4319C95.7143 69.4319 97.7745 68.6137 99.3397 66.9774C100.905 65.3415 101.688 63.0489 101.688 60.1003V56.9181C100.716 58.3565 99.4025 59.507 97.7475 60.37C96.0921 61.233 94.2749 61.6644 92.2957 61.6644C88.5171 61.6644 85.3684 60.343 82.8494 57.7002C80.3305 55.0571 79.0712 51.7939 79.0712 47.9103C79.0712 44.0627 80.3396 40.8174 82.8764 38.1744C85.4136 35.5314 88.5532 34.2099 92.2957 34.2099C94.2749 34.2099 96.0921 34.6415 97.7475 35.5045C99.4025 36.3675 100.716 37.5002 101.688 38.9026V34.7493H106.33V60.0464C106.33 64.3616 105.079 67.6877 102.578 70.0252C100.078 72.3622 96.9018 73.531 93.0513 73.531ZM86.3581 54.7065C88.0492 56.4684 90.2443 57.3496 92.9434 57.3496C95.6421 57.3496 97.8372 56.4597 99.5286 54.6795C101.22 52.8996 102.065 50.6432 102.065 47.9103C102.065 45.1774 101.211 42.921 99.5017 41.141C97.7923 39.3611 95.6064 38.4711 92.9434 38.4711C90.2804 38.4711 88.0944 39.3611 86.3851 41.141C84.6758 42.921 83.821 45.1774 83.821 47.9103C83.821 50.6432 84.6667 52.9086 86.3581 54.7065ZM115.776 61.7184V23.4223H126.787C132.653 23.4223 137.52 25.2382 141.388 28.87C145.256 32.5019 147.191 37.0687 147.191 42.5704C147.191 48.0721 145.256 52.6389 141.388 56.2709C137.52 59.9024 132.653 61.7184 126.787 61.7184H115.776ZM120.796 57.026H126.787C131.357 57.026 135.055 55.6685 137.88 52.9535C140.704 50.2386 142.117 46.7776 142.117 42.5704C142.117 38.3632 140.704 34.9021 137.88 32.1872C135.055 29.4724 131.357 28.1149 126.787 28.1149H120.796V57.026ZM149.943 61.7184L166.892 23.4223H171.049L188.051 61.7184H182.816L177.85 50.5533H159.983L155.125 61.7184H149.943ZM168.889 30.2185L161.98 46.0224H175.853L168.889 30.2185Z" stroke="black" stroke-width="2" stroke-linejoin="round" mask="url(#path-1-inside-1_2862_55)"/>
<path d="M8.71838 100.999C10.8011 100.999 12.7205 100.144 14.109 98.76L12.5163 97.1721C11.577 98.19 10.2294 98.8415 8.71838 98.8415C5.69637 98.8415 3.45028 96.3985 3.45028 93.3855C3.45028 90.3724 5.69637 87.9295 8.71838 87.9295C10.2702 87.9295 11.577 88.5402 12.5163 89.5581L14.1498 87.9295C12.8022 86.6265 10.9645 85.7715 8.71838 85.7715C4.51207 85.7715 1 89.1917 1 93.3855C1 97.905 4.18536 100.999 8.71838 100.999Z" stroke="black"/>
<path d="M25.8883 100.999C30.0538 100.999 33.5658 97.5385 33.5658 93.3855C33.5658 88.8659 30.4213 85.7715 25.8883 85.7715C21.682 85.7715 18.1699 89.1917 18.1699 93.3855C18.1699 97.905 21.3553 100.999 25.8883 100.999ZM25.8883 98.8415C22.8663 98.8415 20.6202 96.3985 20.6202 93.3855C20.6202 90.3724 22.8663 87.9295 25.8883 87.9295C28.9103 87.9295 31.1156 90.3724 31.1156 93.3855C31.1156 96.3985 28.9103 98.8415 25.8883 98.8415Z" stroke="black"/>
<path d="M38.3223 100.795H40.6909V89.8834L45.8773 94.8508L51.0637 89.8834V100.795H53.4323V85.9746H51.8396L45.8773 91.8785L39.9558 85.9746H38.3223V100.795Z" stroke="black"/>
<path d="M58.5146 100.795H60.8833V89.8834L66.0697 94.8508L71.2561 89.8834V100.795H73.6247V85.9746H72.032L66.0697 91.8785L60.1482 85.9746H58.5146V100.795Z" stroke="black"/>
<path d="M84.9555 100.999C88.5493 100.999 91.5713 98.4338 91.5713 94.5251V85.9746H89.1618V94.7286C89.1618 97.0495 87.4058 98.841 85.078 98.841C82.7094 98.841 80.9534 97.0495 80.9534 94.7286V85.9746H78.5439V94.5251C78.5439 98.4338 81.3618 100.999 84.9555 100.999Z" stroke="black"/>
<path d="M96.4893 100.795H98.8987V89.5169L109.598 100.795H111.64V85.9746H109.231V97.2531L98.5312 85.9746H96.4893V100.795Z" stroke="black"/>
<path d="M116.723 100.795H119.132V85.9746H116.723V100.795Z" stroke="black"/>
<path d="M128.912 100.795H131.28V88.0919H136.753V85.9746H123.439V88.0919H128.912V100.795Z" stroke="black"/>
<path d="M146.286 100.795H148.695V93.7922L155.066 85.9746H152.166L147.511 91.8785L142.815 85.9746H139.915L146.286 93.7922V100.795Z" stroke="black"/>
<path d="M174.42 100.999C178.585 100.999 182.097 97.5385 182.097 93.3855H174.42V95.5027H179.279C178.503 97.4571 176.666 98.8415 174.42 98.8415C171.398 98.8415 169.151 96.3985 169.151 93.3855C169.151 90.3724 171.398 87.9295 174.42 87.9295C175.971 87.9295 177.278 88.5402 178.217 89.5581L179.851 87.9295C178.503 86.6265 176.666 85.7715 174.42 85.7715C170.213 85.7715 166.701 89.1917 166.701 93.3855C166.701 97.905 169.887 100.999 174.42 100.999Z" stroke="black"/>
<path d="M192.489 100.999C196.082 100.999 199.104 98.4338 199.104 94.5251V85.9746H196.695V94.7286C196.695 97.0495 194.939 98.841 192.611 98.841C190.243 98.841 188.487 97.0495 188.487 94.7286V85.9746H186.077V94.5251C186.077 98.4338 188.895 100.999 192.489 100.999Z" stroke="black"/>
<path d="M204.022 100.795H206.432V85.9746H204.022V100.795Z" stroke="black"/>
<path d="M211.515 100.795H220.295V98.6781H213.924V85.9746H211.515V100.795Z" stroke="black"/>
<path d="M224.233 100.795H230.767C234.892 100.795 238.323 97.4974 238.323 93.385C238.323 89.0283 235.096 85.9746 230.767 85.9746H224.233V100.795ZM226.643 98.6781V88.0919H230.767C233.708 88.0919 235.913 90.4127 235.913 93.385C235.913 96.3573 233.708 98.6781 230.767 98.6781H226.643Z" stroke="black"/>
<path opacity="0.5" d="M75.5984 74.4404H2.06543V75.0448H75.5984V74.4404Z" stroke="black"/>
<path opacity="0.5" d="M237.249 74.4404H109.63V75.0448H237.249V74.4404Z" stroke="black"/>
</svg>
