<svg width="178" height="60" viewBox="0 0 178 60" fill="none" xmlns="http://www.w3.org/2000/svg">
<g filter="url(#filter0_b_1771_84)">
<path d="M163.202 9.4498C163.202 8.2998 163.227 7.4498 163.277 6.8998C163.377 6.2998 163.627 5.6248 164.027 4.8748C164.727 3.5248 166.677 2.8498 169.877 2.8498C173.377 2.8498 175.452 3.7748 176.102 5.6248C176.352 6.4748 176.477 7.7748 176.477 9.5248V51.2248C176.477 52.4248 176.427 53.2998 176.327 53.8498C176.277 54.3998 176.052 55.0498 175.652 55.7998C174.952 57.1498 173.002 57.8248 169.802 57.8248C166.302 57.8248 164.252 56.8748 163.652 54.9748C163.352 54.1748 163.202 52.8998 163.202 51.1498V9.4498Z" stroke="black" stroke-width="1.5"/>
<path d="M156.389 13.9498C157.689 16.5998 158.339 19.5498 158.339 22.7998C158.339 26.0498 157.689 28.9998 156.389 31.6498C155.089 34.2498 153.414 36.3248 151.364 37.8748C147.214 41.0748 142.914 42.6748 138.464 42.6748H129.089V51.1498C129.089 52.2998 129.039 53.1748 128.939 53.7748C128.889 54.3248 128.664 54.9748 128.264 55.7248C127.564 57.0748 125.614 57.7498 122.414 57.7498C118.914 57.7498 116.864 56.8248 116.264 54.9748C115.964 54.1248 115.814 52.8248 115.814 51.0748V9.4498C115.814 8.2998 115.839 7.4498 115.889 6.8998C115.989 6.2998 116.239 5.6248 116.639 4.8748C117.339 3.5248 119.289 2.8498 122.489 2.8498H138.539C142.939 2.8498 147.214 4.4498 151.364 7.6498C153.414 9.1998 155.089 11.2998 156.389 13.9498ZM138.539 29.3998C140.039 29.3998 141.514 28.8498 142.964 27.7498C144.414 26.6498 145.139 24.9998 145.139 22.7998C145.139 20.5998 144.414 18.9498 142.964 17.8498C141.514 16.6998 140.014 16.1248 138.464 16.1248H129.089V29.3998H138.539Z" stroke="black" stroke-width="1.5"/>
<path d="M90.1908 6.7498L110.441 48.5998C111.291 50.2998 111.716 51.5748 111.716 52.4248C111.716 54.2248 110.266 55.8498 107.366 57.2998C105.666 58.1498 104.316 58.5748 103.316 58.5748C102.366 58.5748 101.566 58.3498 100.916 57.8998C100.316 57.4498 99.8658 56.9748 99.5658 56.4748C99.3158 55.9748 98.9408 55.2248 98.4408 54.2248L94.5408 46.1248H73.7658L69.8658 54.2248C69.3658 55.2248 68.9658 55.9498 68.6658 56.3998C68.4158 56.8498 67.9658 57.3248 67.3158 57.8248C66.7158 58.2748 65.9158 58.4998 64.9158 58.4998C63.9658 58.4998 62.6408 58.0748 60.9408 57.2248C58.0408 55.8248 56.5908 54.2248 56.5908 52.4248C56.5908 51.5748 57.0158 50.2998 57.8658 48.5998L78.1158 6.6748C78.6658 5.5248 79.4908 4.5998 80.5908 3.8998C81.7408 3.1998 82.9408 2.8498 84.1908 2.8498C86.8908 2.8498 88.8908 4.1498 90.1908 6.7498ZM84.1158 24.7498L79.1658 35.0248H89.1408L84.1158 24.7498Z" stroke="black" stroke-width="1.5"/>
<path d="M36.7 29.9998L51.775 46.5748C53.475 48.4748 54.325 50.0748 54.325 51.3748C54.325 52.6748 53.35 54.1998 51.4 55.9498C49.5 57.6998 47.875 58.5748 46.525 58.5748C45.225 58.5748 43.7 57.5748 41.95 55.5748L27.7 39.2248L13.45 55.5748C11.65 57.5748 10.1 58.5748 8.8 58.5748C7.55 58.5748 5.925 57.6998 3.925 55.9498C1.975 54.1498 1 52.6248 1 51.3748C1 50.1248 1.875 48.5248 3.625 46.5748L18.7 29.9998L3.625 13.4248C1.875 11.5748 1 9.9998 1 8.6998C1 7.3998 1.975 5.8748 3.925 4.1248C5.875 2.3248 7.5 1.4248 8.8 1.4248C10.15 1.4248 11.7 2.4248 13.45 4.42481L27.7 20.7748L41.95 4.42481C43.75 2.4248 45.275 1.4248 46.525 1.4248C47.825 1.4248 49.45 2.2998 51.4 4.04981C53.35 5.7998 54.325 7.3498 54.325 8.6998C54.325 10.0498 53.475 11.6248 51.775 13.4248L36.7 29.9998Z" stroke="black" stroke-width="1.5"/>
</g>
<defs>
<filter id="filter0_b_1771_84" x="-59.75" y="-59.3252" width="296.978" height="178.65" filterUnits="userSpaceOnUse" color-interpolation-filters="sRGB">
<feFlood flood-opacity="0" result="BackgroundImageFix"/>
<feGaussianBlur in="BackgroundImageFix" stdDeviation="30"/>
<feComposite in2="SourceAlpha" operator="in" result="effect1_backgroundBlur_1771_84"/>
<feBlend mode="normal" in="SourceGraphic" in2="effect1_backgroundBlur_1771_84" result="shape"/>
</filter>
</defs>
</svg>
