<svg width="48" height="48" viewBox="0 0 48 48" fill="none" xmlns="http://www.w3.org/2000/svg">
<rect width="48" height="48" rx="24" fill="black"/>
<path d="M23.9994 13.1783C17.231 13.1783 12.4835 16.0618 12.4835 16.0618C15.085 13.7553 19.6305 12.426 19.6305 12.426L19.2015 12C14.9336 12.0752 11.0695 15.0088 11.0695 15.0088C6.72594 24.0099 7.00357 31.7827 7.00357 31.7827C10.5395 36.3212 15.7923 35.9948 15.7923 35.9948L17.5856 33.7384C14.4288 33.0613 12.4337 30.2787 12.4337 30.2787C12.4337 30.2787 17.1817 33.4879 24 33.4879C30.8183 33.4879 35.5663 30.2787 35.5663 30.2787C35.5663 30.2787 33.5712 33.0619 30.4144 33.7384L32.2077 35.9948C32.2077 35.9948 37.4605 36.3206 40.9964 31.7827C40.9964 31.7827 41.2741 24.0099 36.9305 15.0088C36.9305 15.0088 33.0664 12.0752 28.7985 12L28.3695 12.426C28.3695 12.426 32.9156 13.7546 35.5165 16.0618C35.5165 16.0618 30.7672 13.1783 23.9994 13.1783ZM18.773 22.6813C20.4148 22.6813 21.7531 24.1102 21.7279 25.8654C21.7279 27.5956 20.4148 29.0496 18.773 29.0496C17.1313 29.0496 15.8435 27.5956 15.8435 25.8654C15.8435 24.1352 17.1313 22.6813 18.773 22.6813ZM29.3039 22.6813C30.9457 22.6813 32.2588 24.1102 32.2588 25.8654C32.2588 27.6207 30.9457 29.0496 29.3039 29.0496C27.6621 29.0496 26.3743 27.5956 26.3743 25.8654C26.3743 24.1352 27.6621 22.6813 29.3039 22.6813Z" fill="white"/>
</svg>
