<svg width="48" height="48" viewBox="0 0 48 48" fill="none" xmlns="http://www.w3.org/2000/svg">
<rect width="48" height="48" rx="24" fill="black"/>
<path d="M29.1375 36.8492C29.1256 36.7507 29.1206 36.6513 29.1225 36.552C29.1063 36.5215 29.0961 36.4876 29.0926 36.4526V32.1862C29.0926 30.8424 28.6593 29.6952 27.7928 28.7468C30.1098 28.3055 31.8427 27.3637 32.9908 25.9193C34.1388 24.475 34.7137 22.7269 34.7137 20.6762C34.7137 18.7577 34.1497 17.0926 33.0207 15.6822C33.424 14.2706 33.3531 12.7825 32.8101 11.2169C32.245 11.1732 31.6311 11.2781 30.9663 11.5316C30.3015 11.785 29.8083 12.0221 29.4849 12.2417C29.1634 12.4624 28.8709 12.6722 28.6094 12.871C27.4405 12.5181 26.1357 12.3411 24.6962 12.3411C23.2547 12.3411 21.961 12.5181 20.812 12.871C20.5904 12.6941 20.3329 12.5018 20.0414 12.292C19.7489 12.0822 19.2408 11.8287 18.515 11.5316C17.7903 11.2333 17.1355 11.1065 16.5505 11.1514C15.9865 12.7388 15.9266 14.2487 16.3698 15.6821C15.2617 17.0937 14.7077 18.7577 14.7077 20.6762C14.7077 22.7269 15.2717 24.4695 16.3997 25.9018C17.5278 27.3353 19.2607 28.2836 21.5976 28.7468C20.9994 29.3753 20.5799 30.1797 20.3897 31.0631C18.6768 31.5252 17.4778 31.1941 16.793 30.0688C15.5233 28.0411 14.3852 27.3134 13.378 27.887C13.2363 28.0411 13.2572 28.2006 13.4379 28.3666C13.6196 28.5316 13.8911 28.7523 14.2545 29.0277C14.6168 29.3041 14.8884 29.6067 15.07 29.9377C15.09 29.9814 15.1459 30.142 15.2368 30.4174C15.3236 30.6833 15.4141 30.9477 15.5083 31.2106C15.5981 31.464 15.7698 31.7459 16.0224 32.054C16.2739 32.3632 16.5664 32.6221 16.8989 32.8319C17.2313 33.0406 17.6895 33.1957 18.2735 33.2952C18.8574 33.3935 19.5223 33.3989 20.268 33.3115V36.6351C20.268 36.6678 20.263 36.7225 20.253 36.8011C20.243 36.8776 29.1375 36.8492 29.1375 36.8492Z" fill="white"/>
</svg>
