<svg width="117" height="39" viewBox="0 0 117 39" fill="none" xmlns="http://www.w3.org/2000/svg">
<g filter="url(#filter0_b_947_31)">
<path d="M108.135 5.35C108.135 4.58333 108.151 4.01666 108.185 3.65C108.251 3.25 108.418 2.8 108.685 2.3C109.151 1.4 110.451 0.949997 112.585 0.949997C114.918 0.949997 116.301 1.56666 116.735 2.8C116.901 3.36666 116.985 4.23333 116.985 5.4V33.2C116.985 34 116.951 34.5833 116.885 34.95C116.851 35.3167 116.701 35.75 116.435 36.25C115.968 37.15 114.668 37.6 112.535 37.6C110.201 37.6 108.835 36.9667 108.435 35.7C108.235 35.1667 108.135 34.3167 108.135 33.15V5.35Z" fill="white"/>
</g>
<g filter="url(#filter1_b_947_31)">
<path d="M103.593 8.35C104.46 10.1167 104.893 12.0833 104.893 14.25C104.893 16.4167 104.46 18.3833 103.593 20.15C102.726 21.8833 101.61 23.2667 100.243 24.3C97.4763 26.4333 94.6096 27.5 91.643 27.5H85.393V33.15C85.393 33.9167 85.3596 34.5 85.293 34.9C85.2596 35.2667 85.1096 35.7 84.843 36.2C84.3763 37.1 83.0763 37.55 80.943 37.55C78.6096 37.55 77.243 36.9333 76.843 35.7C76.643 35.1333 76.543 34.2667 76.543 33.1V5.35C76.543 4.58333 76.5596 4.01666 76.593 3.65C76.6596 3.25 76.8263 2.8 77.093 2.3C77.5596 1.4 78.8596 0.949997 80.993 0.949997H91.693C94.6263 0.949997 97.4763 2.01666 100.243 4.15C101.61 5.18333 102.726 6.58333 103.593 8.35ZM91.693 18.65C92.693 18.65 93.6763 18.2833 94.643 17.55C95.6096 16.8167 96.093 15.7167 96.093 14.25C96.093 12.7833 95.6096 11.6833 94.643 10.95C93.6763 10.1833 92.6763 9.8 91.643 9.8H85.393V18.65H91.693Z" fill="white"/>
</g>
<g filter="url(#filter2_b_947_31)">
<path d="M59.4605 3.55L72.9605 31.45C73.5272 32.5833 73.8105 33.4333 73.8105 34C73.8105 35.2 72.8439 36.2833 70.9105 37.25C69.7772 37.8167 68.8772 38.1 68.2105 38.1C67.5772 38.1 67.0439 37.95 66.6105 37.65C66.2106 37.35 65.9105 37.0333 65.7105 36.7C65.5439 36.3667 65.2939 35.8667 64.9605 35.2L62.3605 29.8H48.5105L45.9105 35.2C45.5772 35.8667 45.3105 36.35 45.1105 36.65C44.9439 36.95 44.6439 37.2667 44.2105 37.6C43.8105 37.9 43.2772 38.05 42.6105 38.05C41.9772 38.05 41.0939 37.7667 39.9605 37.2C38.0272 36.2667 37.0605 35.2 37.0605 34C37.0605 33.4333 37.3439 32.5833 37.9105 31.45L51.4105 3.5C51.7772 2.73333 52.3272 2.11666 53.0605 1.65C53.8272 1.18333 54.6272 0.949997 55.4605 0.949997C57.2605 0.949997 58.5939 1.81666 59.4605 3.55ZM55.4105 15.55L52.1105 22.4H58.7605L55.4105 15.55Z" fill="white"/>
</g>
<g filter="url(#filter3_b_947_31)">
<path d="M23.8 19.05L33.85 30.1C34.9833 31.3667 35.55 32.4333 35.55 33.3C35.55 34.1667 34.9 35.1833 33.6 36.35C32.3333 37.5167 31.25 38.1 30.35 38.1C29.4833 38.1 28.4667 37.4333 27.3 36.1L17.8 25.2L8.3 36.1C7.1 37.4333 6.06667 38.1 5.2 38.1C4.36667 38.1 3.28333 37.5167 1.95 36.35C0.65 35.15 0 34.1333 0 33.3C0 32.4667 0.583333 31.4 1.75 30.1L11.8 19.05L1.75 8C0.583333 6.76667 0 5.71667 0 4.85C0 3.98333 0.65 2.96667 1.95 1.8C3.25 0.6 4.33333 0 5.2 0C6.1 0 7.13333 0.666667 8.3 2L17.8 12.9L27.3 2C28.5 0.666667 29.5167 0 30.35 0C31.2167 0 32.3 0.583333 33.6 1.75C34.9 2.91667 35.55 3.95 35.55 4.85C35.55 5.75 34.9833 6.8 33.85 8L23.8 19.05Z" fill="white"/>
</g>
<defs>
<filter id="filter0_b_947_31" x="74.1348" y="-33.05" width="76.8496" height="104.65" filterUnits="userSpaceOnUse" color-interpolation-filters="sRGB">
<feFlood flood-opacity="0" result="BackgroundImageFix"/>
<feGaussianBlur in="BackgroundImageFix" stdDeviation="17"/>
<feComposite in2="SourceAlpha" operator="in" result="effect1_backgroundBlur_947_31"/>
<feBlend mode="normal" in="SourceGraphic" in2="effect1_backgroundBlur_947_31" result="shape"/>
</filter>
<filter id="filter1_b_947_31" x="42.543" y="-33.05" width="96.3496" height="104.6" filterUnits="userSpaceOnUse" color-interpolation-filters="sRGB">
<feFlood flood-opacity="0" result="BackgroundImageFix"/>
<feGaussianBlur in="BackgroundImageFix" stdDeviation="17"/>
<feComposite in2="SourceAlpha" operator="in" result="effect1_backgroundBlur_947_31"/>
<feBlend mode="normal" in="SourceGraphic" in2="effect1_backgroundBlur_947_31" result="shape"/>
</filter>
<filter id="filter2_b_947_31" x="3.06055" y="-33.05" width="104.75" height="105.15" filterUnits="userSpaceOnUse" color-interpolation-filters="sRGB">
<feFlood flood-opacity="0" result="BackgroundImageFix"/>
<feGaussianBlur in="BackgroundImageFix" stdDeviation="17"/>
<feComposite in2="SourceAlpha" operator="in" result="effect1_backgroundBlur_947_31"/>
<feBlend mode="normal" in="SourceGraphic" in2="effect1_backgroundBlur_947_31" result="shape"/>
</filter>
<filter id="filter3_b_947_31" x="-34" y="-34" width="103.55" height="106.1" filterUnits="userSpaceOnUse" color-interpolation-filters="sRGB">
<feFlood flood-opacity="0" result="BackgroundImageFix"/>
<feGaussianBlur in="BackgroundImageFix" stdDeviation="17"/>
<feComposite in2="SourceAlpha" operator="in" result="effect1_backgroundBlur_947_31"/>
<feBlend mode="normal" in="SourceGraphic" in2="effect1_backgroundBlur_947_31" result="shape"/>
</filter>
</defs>
</svg>
